<?xml version="1.0" encoding="iso-8859-1"?>
<!-- Generator: Adobe Illustrator 19.0.0, SVG Export Plug-In . SVG Version: 6.00 Build 0)  -->
<svg version="1.1" id="Capa_1" xmlns="http://www.w3.org/2000/svg" xmlns:xlink="http://www.w3.org/1999/xlink" x="0px" y="0px"
	 viewBox="0 0 512 512" style="enable-background:new 0 0 512 512;" xml:space="preserve">
<path style="fill:#896748;" d="M271,31v60c0,8.399-6.599,15-15,15s-15-6.601-15-15V31c0-8.401,6.599-15,15-15S271,22.599,271,31z"/>
<path style="fill:#73553A;" d="M256,106V16c8.401,0,15,6.599,15,15v60C271,99.399,264.401,106,256,106z"/>
<path style="fill:#896748;" d="M512,31c0,8.399-6.599,15-15,15H15C6.599,46,0,39.399,0,31c0-8.401,6.599-15,15-15h482
	C505.401,16,512,22.599,512,31z"/>
<g>
	<path style="fill:#73553A;" d="M482,91c-3.838,0-7.676-1.465-10.605-4.395l-45-45c-5.859-5.859-5.859-15.352,0-21.211
		s15.352-5.859,21.211,0l45,45c5.859,5.859,5.859,15.352,0,21.211C489.676,89.535,485.838,91,482,91z"/>
	<path style="fill:#73553A;" d="M512,31c0,8.399-6.599,15-15,15H256V16h241C505.401,16,512,22.599,512,31z"/>
</g>
<path style="fill:#FFAC46;" d="M481,286c0,16.5-13.5,30-30,30H61c-16.5,0-30-13.5-30-30s13.5-30,30-30h390
	C467.5,256,481,269.5,481,286z"/>
<path style="fill:#FF941D;" d="M481,286c0,16.5-13.5,30-30,30H256v-60h195C467.5,256,481,269.5,481,286z"/>
<path style="fill:#FEDB41;" d="M451,346c0,16.5-13.5,30-30,30H91c-16.5,0-30-13.5-30-30s13.5-30,30-30h330
	C437.5,316,451,329.5,451,346z"/>
<path style="fill:#FCBF29;" d="M451,346c0,16.5-13.5,30-30,30H256v-60h165C437.5,316,451,329.5,451,346z"/>
<path style="fill:#FFAC46;" d="M421,406c0,16.5-13.5,30-30,30H121c-16.5,0-30-13.5-30-30s13.5-30,30-30h270
	C407.5,376,421,389.5,421,406z"/>
<path style="fill:#FF941D;" d="M421,406c0,16.5-13.5,30-30,30H256v-60h135C407.5,376,421,389.5,421,406z"/>
<path style="fill:#FEDB41;" d="M361,466c0,16.5-13.5,30-30,30H181c-16.5,0-30-13.5-30-30s13.5-30,30-30h150
	C347.5,436,361,449.5,361,466z"/>
<path style="fill:#FCBF29;" d="M361,466c0,16.5-13.5,30-30,30h-75v-60h75C347.5,436,361,449.5,361,466z"/>
<path style="fill:#FEDB41;" d="M451,226c0,16.5-13.5,30-30,30H91c-16.5,0-30-13.5-30-30s13.5-30,30-30h330
	C437.5,196,451,209.5,451,226z"/>
<path style="fill:#FCBF29;" d="M451,226c0,16.5-13.5,30-30,30H256v-60h165C437.5,196,451,209.5,451,226z"/>
<path style="fill:#FEDB41;" d="M361,106c0,16.5-13.5,30-30,30H181c-16.5,0-30-13.5-30-30s13.5-30,30-30h150
	C347.5,76,361,89.5,361,106z"/>
<path style="fill:#FCBF29;" d="M331,136h-75V76h75c16.5,0,30,13.5,30,30S347.5,136,331,136z"/>
<path style="fill:#FFAC46;" d="M421,166c0,16.5-13.5,30-30,30H121c-16.5,0-30-13.5-30-30s13.5-30,30-30h270
	C407.5,136,421,149.5,421,166z"/>
<path style="fill:#FF941D;" d="M391,196H256v-60h135c16.5,0,30,13.5,30,30S407.5,196,391,196z"/>
<path style="fill:#896748;" d="M196,376L196,376c-33.137,0-60-26.863-60-60l0,0c0-33.137,26.863-60,60-60l0,0
	c33.137,0,60,26.863,60,60l0,0C256,349.137,229.137,376,196,376z"/>
<g>
</g>
<g>
</g>
<g>
</g>
<g>
</g>
<g>
</g>
<g>
</g>
<g>
</g>
<g>
</g>
<g>
</g>
<g>
</g>
<g>
</g>
<g>
</g>
<g>
</g>
<g>
</g>
<g>
</g>
</svg>
